<svg width="26" height="26" viewBox="0 0 26 26" fill="none" xmlns="http://www.w3.org/2000/svg">
<path d="M0.666626 12.6667C0.666626 6.69504 0.666626 3.70993 2.52159 1.85496C4.37655 -1.67776e-07 7.36307 0 13.3333 0C19.3035 0 22.29 -1.67776e-07 24.145 1.85496C26 3.70993 26 6.69644 26 12.6667C26 18.6369 26 21.6234 24.145 23.4784C22.29 25.3333 19.3035 25.3333 13.3333 25.3333C7.36307 25.3333 4.37655 25.3333 2.52159 23.4784C0.666626 21.6234 0.666626 18.6369 0.666626 12.6667Z" fill="currentColor"/>
<path d="M20.3703 12.6667H17.5555L14.7407 19.7037L11.9259 5.62964L9.11108 12.6667H6.29626" stroke="white" stroke-width="1.5" stroke-linecap="round" stroke-linejoin="round"/>
</svg>
