<svg width="28" height="28" viewBox="0 0 28 28" fill="none" xmlns="http://www.w3.org/2000/svg">
<path d="M2.625 13.7083C2.625 8.48316 2.625 5.87119 4.24809 4.24809C5.87119 2.625 8.48439 2.625 13.7083 2.625C18.9323 2.625 21.5455 2.625 23.1686 4.24809C24.7917 5.87119 24.7917 8.48439 24.7917 13.7083C24.7917 18.9323 24.7917 21.5455 23.1686 23.1686C21.5455 24.7917 18.9323 24.7917 13.7083 24.7917C8.48439 24.7917 5.87119 24.7917 4.24809 23.1686C2.625 21.5455 2.625 18.9323 2.625 13.7083Z" stroke="black" stroke-width="3" stroke-linecap="round" stroke-linejoin="round"/>
<path d="M19.8656 13.7084H17.4026L14.9397 19.8658L12.4767 7.55103L10.0137 13.7084H7.55078" stroke="black" stroke-width="2.2" stroke-linecap="round" stroke-linejoin="round"/>
</svg>
