<svg width="32" height="32" viewBox="0 0 32 32" fill="none" xmlns="http://www.w3.org/2000/svg">
<path d="M5.33333 17.3333H13.3333C14.0693 17.3333 14.6667 16.7373 14.6667 16V5.33333C14.6667 4.596 14.0693 4 13.3333 4H5.33333C4.59733 4 4 4.596 4 5.33333V16C4 16.7373 4.59733 17.3333 5.33333 17.3333ZM4 26.6667C4 27.404 4.59733 28 5.33333 28H13.3333C14.0693 28 14.6667 27.404 14.6667 26.6667V21.3333C14.6667 20.596 14.0693 20 13.3333 20H5.33333C4.59733 20 4 20.596 4 21.3333V26.6667ZM17.3333 26.6667C17.3333 27.404 17.9293 28 18.6667 28H26.6667C27.404 28 28 27.404 28 26.6667V17.3333C28 16.596 27.404 16 26.6667 16H18.6667C17.9293 16 17.3333 16.596 17.3333 17.3333V26.6667ZM18.6667 13.3333H26.6667C27.404 13.3333 28 12.7373 28 12V5.33333C28 4.596 27.404 4 26.6667 4H18.6667C17.9293 4 17.3333 4.596 17.3333 5.33333V12C17.3333 12.7373 17.9293 13.3333 18.6667 13.3333Z" fill="currentColor"/>
</svg>
