<svg width="28" height="28" viewBox="0 0 28 28" fill="none" xmlns="http://www.w3.org/2000/svg">
<path d="M4.66699 18.5996H11.667C11.704 18.5998 11.7334 18.6302 11.7334 18.667V23.333C11.7334 23.3698 11.704 23.4002 11.667 23.4004H4.66699C4.62979 23.4004 4.59961 23.3699 4.59961 23.333V18.667C4.59961 18.6301 4.62979 18.5996 4.66699 18.5996ZM16.333 15.0996H23.333C23.3707 15.0996 23.4004 15.1293 23.4004 15.167V23.333C23.4004 23.3707 23.3707 23.4004 23.333 23.4004H16.333C16.2955 23.4002 16.2666 23.3706 16.2666 23.333V15.167C16.2666 15.1294 16.2955 15.0998 16.333 15.0996ZM4.66699 4.59961H11.667C11.704 4.59978 11.7334 4.63016 11.7334 4.66699V14C11.7334 14.0368 11.704 14.0662 11.667 14.0664H4.66699C4.62979 14.0664 4.59961 14.0369 4.59961 14V4.66699C4.59961 4.63006 4.62979 4.59961 4.66699 4.59961ZM16.333 4.59961H23.333C23.3707 4.59961 23.4004 4.62934 23.4004 4.66699V10.5C23.4004 10.5377 23.3707 10.5664 23.333 10.5664H16.333C16.2955 10.5662 16.2666 10.5375 16.2666 10.5V4.66699C16.2666 4.62945 16.2955 4.59978 16.333 4.59961Z" stroke="black" stroke-width="2.2"/>
</svg>
