<svg width="42" height="42" viewBox="0 0 42 42" fill="none" xmlns="http://www.w3.org/2000/svg">
<path d="M21 0.6875C16.9826 0.6875 13.0554 1.87881 9.71499 4.11077C6.37462 6.34274 3.77111 9.51512 2.23371 13.2267C0.696301 16.9384 0.294046 21.0225 1.07781 24.9628C1.86157 28.903 3.79615 32.5224 6.6369 35.3631C9.47766 38.2039 13.097 40.1384 17.0372 40.9222C20.9775 41.706 25.0616 41.3037 28.7733 39.7663C32.4849 38.2289 35.6573 35.6254 37.8892 32.285C40.1212 28.9446 41.3125 25.0174 41.3125 21C41.3058 15.6149 39.1636 10.4522 35.3557 6.64431C31.5478 2.83644 26.3852 0.694219 21 0.6875ZM28.8125 22.5625H22.5625V28.8125C22.5625 29.2269 22.3979 29.6243 22.1049 29.9174C21.8118 30.2104 21.4144 30.375 21 30.375C20.5856 30.375 20.1882 30.2104 19.8952 29.9174C19.6021 29.6243 19.4375 29.2269 19.4375 28.8125V22.5625H13.1875C12.7731 22.5625 12.3757 22.3979 12.0827 22.1049C11.7896 21.8118 11.625 21.4144 11.625 21C11.625 20.5856 11.7896 20.1882 12.0827 19.8951C12.3757 19.6021 12.7731 19.4375 13.1875 19.4375H19.4375V13.1875C19.4375 12.7731 19.6021 12.3757 19.8952 12.0826C20.1882 11.7896 20.5856 11.625 21 11.625C21.4144 11.625 21.8118 11.7896 22.1049 12.0826C22.3979 12.3757 22.5625 12.7731 22.5625 13.1875V19.4375H28.8125C29.2269 19.4375 29.6243 19.6021 29.9174 19.8951C30.2104 20.1882 30.375 20.5856 30.375 21C30.375 21.4144 30.2104 21.8118 29.9174 22.1049C29.6243 22.3979 29.2269 22.5625 28.8125 22.5625Z" fill="#175CD3"/>
</svg>
