<svg width="28" height="28" viewBox="0 0 28 28" fill="none" xmlns="http://www.w3.org/2000/svg">
<path d="M24.5 21.4375H24.0625V4.375C24.0625 4.0269 23.9242 3.69306 23.6781 3.44692C23.4319 3.20078 23.0981 3.0625 22.75 3.0625H16.625C16.2769 3.0625 15.9431 3.20078 15.6969 3.44692C15.4508 3.69306 15.3125 4.0269 15.3125 4.375V8.3125H10.5C10.1519 8.3125 9.81806 8.45078 9.57192 8.69692C9.32578 8.94306 9.1875 9.2769 9.1875 9.625V13.5625H5.25C4.9019 13.5625 4.56806 13.7008 4.32192 13.9469C4.07578 14.1931 3.9375 14.5269 3.9375 14.875V21.4375H3.5C3.1519 21.4375 2.81806 21.5758 2.57192 21.8219C2.32578 22.0681 2.1875 22.4019 2.1875 22.75C2.1875 23.0981 2.32578 23.4319 2.57192 23.6781C2.81806 23.9242 3.1519 24.0625 3.5 24.0625H24.5C24.8481 24.0625 25.1819 23.9242 25.4281 23.6781C25.6742 23.4319 25.8125 23.0981 25.8125 22.75C25.8125 22.4019 25.6742 22.0681 25.4281 21.8219C25.1819 21.5758 24.8481 21.4375 24.5 21.4375ZM17.9375 5.6875H21.4375V21.4375H17.9375V5.6875ZM11.8125 10.9375H15.3125V21.4375H11.8125V10.9375ZM6.5625 16.1875H9.1875V21.4375H6.5625V16.1875Z" fill="#343330"/>
</svg>
