<svg width="28" height="28" viewBox="0 0 28 28" fill="none" xmlns="http://www.w3.org/2000/svg">
<path d="M14 8.31242C12.8751 8.31242 11.7755 8.64599 10.8402 9.27094C9.90491 9.89589 9.17593 10.7842 8.74546 11.8234C8.31498 12.8627 8.20235 14.0062 8.4218 15.1095C8.64126 16.2128 9.18294 17.2262 9.97835 18.0216C10.7738 18.817 11.7872 19.3587 12.8904 19.5781C13.9937 19.7976 15.1373 19.685 16.1765 19.2545C17.2158 18.824 18.1041 18.095 18.729 17.1597C19.354 16.2244 19.6875 15.1248 19.6875 13.9999C19.6858 12.492 19.086 11.0464 18.0198 9.98017C16.9535 8.91393 15.5079 8.31416 14 8.31242ZM14 17.0624C13.3943 17.0624 12.8022 16.8828 12.2986 16.5463C11.795 16.2098 11.4024 15.7315 11.1706 15.1719C10.9388 14.6123 10.8782 13.9965 10.9964 13.4025C11.1145 12.8084 11.4062 12.2627 11.8345 11.8344C12.2628 11.4061 12.8085 11.1144 13.4026 10.9963C13.9966 10.8781 14.6124 10.9387 15.172 11.1705C15.7316 11.4023 16.2099 11.7949 16.5464 12.2985C16.8829 12.8021 17.0625 13.3942 17.0625 13.9999C17.0625 14.8121 16.7399 15.5911 16.1655 16.1654C15.5912 16.7398 14.8122 17.0624 14 17.0624ZM24.0625 14.0863V13.9135L25.5938 11.9984C25.7223 11.8379 25.8113 11.6495 25.8537 11.4483C25.8961 11.2471 25.8906 11.0388 25.8377 10.8401C25.5614 9.79785 25.1483 8.79677 24.6094 7.86289C24.5056 7.68481 24.3613 7.53368 24.1881 7.42176C24.015 7.30984 23.818 7.24026 23.613 7.21867L21.1761 6.94523L21.0547 6.82383L20.7813 4.38586C20.7595 4.18105 20.6899 3.98423 20.5779 3.81132C20.466 3.63841 20.315 3.49427 20.1371 3.39055C19.2031 2.84989 18.2016 2.4354 17.1588 2.15789C16.9599 2.10576 16.7516 2.10107 16.5506 2.1442C16.3496 2.18732 16.1615 2.27706 16.0016 2.40617L14.0864 3.93742H13.9136L11.9985 2.40617C11.838 2.27764 11.6496 2.1886 11.4484 2.14623C11.2472 2.10387 11.0389 2.10936 10.8402 2.16227C9.79768 2.44031 8.79658 2.85517 7.86299 3.39602C7.6856 3.49931 7.53491 3.64277 7.42302 3.81487C7.31114 3.98697 7.24118 4.18291 7.21877 4.38695L6.94533 6.82383L6.82393 6.94523L4.38596 7.21867C4.18114 7.24043 3.98432 7.31008 3.81142 7.42199C3.63851 7.53391 3.49437 7.68495 3.39065 7.86289C2.85151 8.79706 2.43849 9.79853 2.16236 10.8412C2.10964 11.0397 2.10424 11.2478 2.1466 11.4488C2.18896 11.6498 2.2779 11.838 2.40627 11.9984L3.93752 13.9135V14.0863L2.40627 16.0015C2.27774 16.162 2.1887 16.3504 2.14633 16.5516C2.10396 16.7528 2.10946 16.9611 2.16236 17.1598C2.44075 18.2023 2.85598 19.2034 3.39721 20.137C3.50039 20.3142 3.64368 20.4648 3.81558 20.5767C3.98748 20.6886 4.1832 20.7586 4.38705 20.7812L6.82393 21.0524L6.94533 21.1738L7.21877 23.614C7.24052 23.8188 7.31018 24.0156 7.42209 24.1885C7.53401 24.3614 7.68504 24.5056 7.86299 24.6093C8.79694 25.15 9.79842 25.5644 10.8413 25.842C11.0401 25.8941 11.2484 25.8988 11.4494 25.8556C11.6504 25.8125 11.8385 25.7228 11.9985 25.5937L13.9136 24.0624H14.0864L16.0016 25.5937C16.1621 25.7222 16.3505 25.8112 16.5517 25.8536C16.7529 25.896 16.9612 25.8905 17.1599 25.8376C18.2021 25.5613 19.2032 25.1483 20.1371 24.6093C20.3148 24.5063 20.466 24.3629 20.5782 24.1908C20.6905 24.0187 20.7608 23.8226 20.7835 23.6184L21.0547 21.1815L21.1761 21.0601L23.6141 20.7812C23.8183 20.7585 24.0144 20.6882 24.1865 20.576C24.3586 20.4637 24.502 20.3126 24.605 20.1348C25.1457 19.2008 25.5602 18.1993 25.8377 17.1565C25.89 16.9583 25.8953 16.7506 25.8529 16.55C25.8105 16.3494 25.7218 16.1616 25.5938 16.0015L24.0625 14.0863ZM21.4244 13.5515C21.4419 13.8502 21.4419 14.1497 21.4244 14.4484C21.4049 14.7731 21.5066 15.0935 21.7099 15.3474L23.1142 17.1029C22.9817 17.4953 22.8235 17.8786 22.6406 18.2502L20.4061 18.4985C20.0826 18.5355 19.7844 18.6914 19.5694 18.936C19.3707 19.1599 19.1589 19.3717 18.935 19.5704C18.6904 19.7854 18.5345 20.0836 18.4975 20.4071L18.2503 22.6405C17.8787 22.8241 17.4954 22.983 17.103 23.1163L15.3475 21.7109C15.1146 21.525 14.8253 21.4239 14.5272 21.4243C14.501 21.4243 14.4747 21.4243 14.4485 21.4243C14.1498 21.4418 13.8503 21.4418 13.5516 21.4243C13.2271 21.4051 12.9069 21.5063 12.6525 21.7087L10.8971 23.1141C10.5046 22.9816 10.1214 22.8234 9.74971 22.6405L9.50143 20.406C9.46444 20.0825 9.30851 19.7843 9.06393 19.5693C8.84008 19.3706 8.62824 19.1588 8.42955 18.9349C8.21457 18.6903 7.91635 18.5344 7.59283 18.4974L5.3594 18.2502C5.17583 17.8786 5.0169 17.4954 4.88362 17.1029L6.28799 15.3474C6.49127 15.0935 6.593 14.7731 6.57346 14.4484C6.55596 14.1497 6.55596 13.8502 6.57346 13.5515C6.593 13.2268 6.49127 12.9064 6.28799 12.6524L4.8858 10.897C5.01837 10.5045 5.17658 10.1213 5.3594 9.74961L7.59393 9.50133C7.91745 9.46434 8.21567 9.30841 8.43065 9.06383C8.62934 8.83998 8.84117 8.62814 9.06502 8.42945C9.3096 8.21448 9.46553 7.91626 9.50252 7.59273L9.74971 5.3593C10.1213 5.17573 10.5046 5.0168 10.8971 4.88352L12.6525 6.28898C12.9069 6.49132 13.2271 6.59258 13.5516 6.57336C13.8503 6.55586 14.1498 6.55586 14.4485 6.57336C14.773 6.59321 15.0934 6.49188 15.3475 6.28898L17.103 4.88352C17.4954 5.0168 17.8787 5.17573 18.2503 5.3593L18.4986 7.59383C18.5356 7.91735 18.6915 8.21557 18.9361 8.43055C19.16 8.62924 19.3718 8.84107 19.5705 9.06492C19.7855 9.3095 20.0837 9.46543 20.4072 9.50242L22.6406 9.74961C22.8242 10.1212 22.9831 10.5045 23.1164 10.897L21.7121 12.6524C21.508 12.9061 21.4055 13.2265 21.4244 13.5515Z" fill="#343330"/>
</svg>
